<?xml version="1.0" encoding="utf-8"?>
<!-- Designed by Vexels.com - 2020 All Rights Reserved - https://vexels.com/terms-and-conditions/  -->
<svg version="1.1" id="Layer_1" xmlns="http://www.w3.org/2000/svg" xmlns:xlink="http://www.w3.org/1999/xlink" x="0px" y="0px"
	 viewBox="0 0 1200 1200" enable-background="new 0 0 1200 1200" xml:space="preserve">
<g>
	<path fill="none" d="M971.291,934.362c-0.035-0.758-0.111-1.482-0.265-2.136c-0.053-0.225-0.161-0.4-0.228-0.612
		c-0.15-0.473-0.289-0.957-0.511-1.364c-0.323-0.59-0.723-1.11-1.202-1.555c-8.137-7.548-36.138,9.274-63.758,37.899l-0.121,0.396
		v-0.001l-0.09,0.294c-0.356,3.654,0.321,6.451,2.153,8.151c8.107,7.52,35.933-9.151,63.455-37.585l0.455-0.462
		c0.005-0.044,0.001-0.08,0.006-0.124c0.109-0.942,0.159-1.835,0.135-2.664C971.318,934.513,971.295,934.446,971.291,934.362z"/>
	
		<ellipse transform="matrix(0.9998 0.022 -0.022 0.9998 22.2269 -13.3654)" fill="none" cx="618.782" cy="1003.878" rx="76.745" ry="34.444"/>
	<path fill="none" d="M608.571,470.166c18.585,0,35.682-6.369,49.228-17.045l0.814-0.653c-0.001-0.011-0.004-0.022-0.005-0.033
		c-1.587-14.207-7.75-27.074-16.982-37.036c-0.276-0.298-0.584-0.562-0.865-0.854c-1.065-1.107-21.363-19.834-46.765-19.834
		c-23.781,0-44.814,13.128-55.716,31.472l-0.391,0.656h0l-0.1,0.168C551.007,452.64,577.742,470.166,608.571,470.166z"/>
	<path fill="none" d="M753.185,690.992c-4.717,0-9.316,0.501-13.748,1.456l-1.967,0.473c8.227,36.238,38.098,63.09,73.686,63.09
		c2.364,0,4.702-0.118,7.011-0.35l0.001-0.038l0.021-1.035C817.432,719.335,788.618,690.992,753.185,690.992z"/>
	<path fill="#FFA900" d="M755.151,1007.761c39.664-77.802,68.266-165.863,84.416-257.851c-0.005,0.003-0.01,0.005-0.016,0.008
		c-6.71,2.97-13.882,4.949-21.383,5.703l-0.001,0.038c-2.309,0.232-4.647,0.35-7.011,0.35c-35.589,0-65.459-26.852-73.686-63.09
		l1.967-0.473l-1.878,0.451c-1.47-6.468-2.336-13.199-2.336-20.166c0-45.992,33.996-83.278,75.933-83.278
		c16.055,0,30.918,5.505,43.183,14.832c5.768-193.632-43.97-389.992-161.776-534.489c-30.097-4.989-61.014-7.623-92.564-7.623
		c-303.757,0-550,240.792-550,537.826c0,297.033,246.243,537.825,550,537.825c19.085,0,37.942-0.954,56.526-2.809
		C695.514,1097.194,730.829,1056.405,755.151,1007.761z M600.461,103.877c39.481,0,71.486,12.546,71.486,28.022
		c0,15.477-32.005,28.023-71.486,28.023c-39.48,0-71.486-12.546-71.486-28.023C528.975,116.423,560.981,103.877,600.461,103.877z
		 M169.472,541.766c-1.739,44.558-18.584,80.077-37.625,79.334c-19.041-0.743-33.067-37.467-31.328-82.025
		c1.739-44.558,18.584-80.077,37.625-79.334C157.184,460.484,171.21,497.208,169.472,541.766z M309.307,980.188
		c-10.777,11.794-44.942-1.882-76.31-30.546c-31.368-28.664-48.062-61.461-37.285-73.254c10.777-11.793,44.942,1.882,76.311,30.546
		C303.391,935.597,320.084,968.394,309.307,980.188z M290.476,252.126c-29.735,30.355-63.092,45.899-74.505,34.72
		c-11.412-11.18,3.441-44.85,33.177-75.204c29.735-30.355,63.092-45.899,74.504-34.719
		C335.065,188.101,320.211,221.772,290.476,252.126z M416.348,756.01c-39.738,0-71.952-32.214-71.952-71.952
		s32.214-71.952,71.952-71.952c39.738,0,71.952,32.214,71.952,71.952S456.087,756.01,416.348,756.01z M537.771,426.818
		c-5.583-10.882-8.796-23.178-8.796-36.248c0-43.96,35.636-79.595,79.596-79.595c43.959,0,79.596,35.635,79.596,79.595
		c0,24.993-11.54,47.272-29.56,61.865c0.001,0.011,0.004,0.022,0.005,0.033l-0.814,0.653
		c-13.545,10.676-30.643,17.045-49.228,17.045c-30.829,0-57.563-17.526-70.785-43.159l0.1-0.168
		C537.848,426.834,537.81,426.821,537.771,426.818z M618.024,1038.314c-42.375-0.932-76.387-17.105-75.969-36.124
		c0.418-19.018,35.109-33.68,77.484-32.748c42.375,0.932,76.387,17.105,75.969,36.124
		C695.09,1024.585,660.399,1039.246,618.024,1038.314z"/>
	<path fill="#F2A100" d="M692.564,69.798c117.805,144.497,167.544,340.857,161.776,534.489c0.034,0.026,0.07,0.048,0.104,0.073
		c19.715,15.042,32.646,40.036,32.646,68.373c0,34.966-19.67,64.845-47.522,77.178c-16.15,91.987-44.752,180.048-84.416,257.851
		c-24.322,48.644-59.637,89.432-98.625,127.255C933.726,1107.342,1150,878.371,1150,600.001
		C1150,333.818,952.24,112.838,692.564,69.798z M859.904,175.264c7.213-10.159,40.838,1.329,75.103,25.659
		c34.266,24.329,56.196,52.288,48.983,62.446c-7.213,10.158-40.838-1.329-75.103-25.659
		C874.622,213.381,852.691,185.423,859.904,175.264z M974.876,933.466c-1.229,1.325-2.463,2.595-3.695,3.875
		c0.003-0.028,0.001-0.051,0.004-0.078c-0.005,0.044-0.001,0.08-0.006,0.124l-0.455,0.462
		c-27.523,28.434-55.348,45.105-63.455,37.585c-1.833-1.7-2.509-4.497-2.153-8.151l0.09-0.294
		c1.45-13.377,16.347-37.883,38.832-62.125c28.823-31.077,59.092-49.867,67.607-41.969
		C1020.161,870.795,1003.699,902.39,974.876,933.466z M1083.826,589.396c-15.885,1.696-32.664-33.473-37.477-78.552
		c-4.812-45.079,4.164-82.998,20.05-84.694c15.885-1.696,32.664,33.473,37.477,78.552S1099.711,587.7,1083.826,589.396z"/>
	<circle fill="#E69800" cx="416.348" cy="684.059" r="71.952"/>
	
		<ellipse transform="matrix(0.9943 -0.1062 0.1062 0.9943 -47.8268 116.9947)" fill="#D98F00" cx="1075.112" cy="507.773" rx="28.927" ry="82.087"/>
	<path fill="#D98F00" d="M944.038,904.865c-22.485,24.242-37.382,48.747-38.832,62.125v0.001l0.121-0.396
		c27.621-28.625,55.621-45.447,63.758-37.899c0.479,0.444,0.879,0.964,1.202,1.555c0.223,0.407,0.361,0.891,0.511,1.364
		c0.067,0.212,0.175,0.387,0.228,0.612c0.154,0.654,0.229,1.378,0.265,2.136c0.004,0.084,0.026,0.151,0.029,0.236
		c0.024,0.829-0.026,1.722-0.135,2.664c-0.003,0.028-0.001,0.051-0.004,0.078c1.232-1.279,2.466-2.549,3.695-3.875
		c28.823-31.076,45.285-62.671,36.769-70.57C1003.129,854.998,972.86,873.788,944.038,904.865z"/>
	<ellipse fill="#E69800" cx="600.461" cy="131.9" rx="71.486" ry="28.023"/>
	
		<ellipse transform="matrix(-0.7144 -0.6998 0.6998 -0.7144 300.2856 586.3405)" fill="#E69800" cx="269.812" cy="231.884" rx="28.927" ry="76.939"/>
	
		<ellipse transform="matrix(0.039 -0.9992 0.9992 0.039 -410.2789 654.2411)" fill="#E69800" cx="134.995" cy="540.421" rx="80.741" ry="34.503"/>
	
		<ellipse transform="matrix(0.6746 -0.7382 0.7382 0.6746 -603.1027 488.5074)" fill="#E69800" cx="252.51" cy="928.288" rx="28.927" ry="76.939"/>
	
		<ellipse transform="matrix(0.8154 0.5789 -0.5789 0.8154 297.1883 -493.2581)" fill="#D98F00" cx="921.947" cy="219.317" rx="76.092" ry="22.559"/>
	<path fill="#E69800" d="M538.278,426.183c10.903-18.344,31.935-31.472,55.716-31.472c25.856,0,45.701,18.727,46.765,19.834
		c0.281,0.292,0.589,0.557,0.865,0.854c9.232,9.962,15.395,22.829,16.982,37.036c18.019-14.593,29.56-36.872,29.56-61.865
		c0-43.96-35.636-79.595-79.596-79.595c-43.959,0-79.596,35.635-79.596,79.595c0,13.07,3.214,25.366,8.796,36.248
		c0.039,0.003,0.076,0.016,0.115,0.021h0L538.278,426.183z"/>
	<path fill="#E69800" d="M735.224,672.732c0,6.967,0.866,13.698,2.336,20.166l1.878-0.451c4.432-0.954,9.031-1.456,13.748-1.456
		c35.433,0,64.247,28.343,65.004,63.595l-0.021,1.035c7.501-0.754,14.673-2.733,21.383-5.703
		c8.386-47.758,13.428-96.566,14.892-145.559c-0.033-0.026-0.07-0.048-0.104-0.073c-12.265-9.327-27.128-14.832-43.183-14.832
		C769.22,589.455,735.224,626.74,735.224,672.732z"/>
	<path fill="#D98F00" d="M839.567,749.911c27.852-12.333,47.522-42.213,47.522-77.178c0-28.336-12.931-53.33-32.646-68.373
		c-1.464,48.993-6.506,97.801-14.892,145.559C839.556,749.916,839.561,749.913,839.567,749.911z"/>
</g>
</svg>
